# Blender v3.0.0 OBJ File: ''
# www.blender.org
o Cube_Cube.001
v -1.000000 -1.000000 1.000000
v -1.000000 1.000000 1.000000
v -1.000000 -1.000000 -1.000000
v -1.000000 1.000000 -1.000000
v 1.000000 -1.000000 1.000000
v 1.000000 1.000000 1.000000
v 1.000000 -1.000000 -1.000000
v 1.000000 1.000000 -1.000000
vt -0.003581 0.000326
vt -0.001628 1.000325
vt 1.002604 1.006185
vt 0.994792 0.000326
vt -0.001628 1.000325
vt -0.003581 0.000326
vt 0.994792 0.000326
vt 1.002604 1.006185
vt -0.001628 1.000325
vt -0.003581 0.000326
vt 0.994792 0.000326
vt 1.002604 1.006185
vt -0.003581 0.000326
vt 0.994792 0.000326
vt 1.002604 1.006185
vt -0.001628 1.000325
vt -0.003581 0.000326
vt 0.994792 0.000326
vt 1.002604 1.006185
vt -0.001628 1.000325
vn -1.0000 0.0000 0.0000
vn 0.0000 0.0000 -1.0000
vn 1.0000 0.0000 0.0000
vn 0.0000 0.0000 1.0000
vn 0.0000 -1.0000 0.0000
vn 0.0000 1.0000 0.0000
usemtl None
s off
f 1/1/1 2/2/1 4/3/1 3/4/1
f 3/5/2 4/6/2 8/7/2 7/8/2
f 7/8/3 8/9/3 6/10/3 5/11/3
f 5/11/4 6/10/4 2/2/4 1/12/4
f 3/13/5 7/14/5 5/15/5 1/16/5
f 8/17/6 4/18/6 2/19/6 6/20/6
