# Blender v3.0.0 OBJ File: 'saturn.blend'
# www.blender.org
o Circle
v 0.000000 0.000000 0.000000
v 0.000000 0.000000 -1.299453
v -0.253511 0.000000 -1.274484
v -0.497279 0.000000 -1.200538
v -0.721937 0.000000 -1.080455
v -0.918852 0.000000 -0.918852
v -1.080455 0.000000 -0.721937
v -1.200538 0.000000 -0.497279
v -1.274484 0.000000 -0.253511
v -1.299453 0.000000 0.000000
v -1.274484 0.000000 0.253511
v -1.200538 0.000000 0.497279
v -1.080456 0.000000 0.721937
v -0.918852 0.000000 0.918852
v -0.721937 0.000000 1.080456
v -0.497279 0.000000 1.200538
v -0.253511 0.000000 1.274484
v 0.000000 0.000000 1.299453
v 0.253511 0.000000 1.274484
v 0.497279 0.000000 1.200538
v 0.721937 0.000000 1.080455
v 0.918852 0.000000 0.918852
v 1.080455 0.000000 0.721938
v 1.200538 0.000000 0.497279
v 1.274484 0.000000 0.253511
v 1.299453 0.000000 -0.000000
v 1.274484 0.000000 -0.253511
v 1.200538 0.000000 -0.497279
v 1.080456 0.000000 -0.721937
v 0.918852 0.000000 -0.918852
v 0.721937 0.000000 -1.080455
v 0.497279 0.000000 -1.200538
v 0.253511 0.000000 -1.274484
vt -1.065319 0.222470
vt 1.000000 0.191154
vt 1.000000 0.808846
vt 1.000000 0.191154
vt 1.000000 0.808846
vt 1.000000 0.191154
vt 1.000000 0.808846
vt 1.000000 0.191154
vt 1.000000 0.808846
vt 1.000000 0.191154
vt 1.000000 0.808846
vt 1.000000 0.191154
vt 1.000000 0.808846
vt 1.000000 0.191154
vt 1.000000 0.808846
vt 1.000000 0.191154
vt 1.000000 0.808846
vt 1.000000 0.191154
vt 1.000000 0.808846
vt 1.000000 0.191154
vt 1.000000 0.808846
vt 1.000000 0.191154
vt 1.000000 0.808846
vt 1.000000 0.191154
vt 1.000000 0.808846
vt 1.000000 0.191154
vt 1.000000 0.808846
vt 1.000000 0.191154
vt 1.000000 0.808846
vt 1.000000 0.191154
vt 1.000000 0.808846
vt 1.000000 0.191154
vt 1.000000 0.808846
vt 1.000000 0.191154
vt 1.000000 0.808846
vt 1.000000 0.191154
vt 1.000000 0.808846
vt 1.000000 0.191154
vt 1.000000 0.808846
vt 1.000000 0.191154
vt 1.000000 0.808846
vt 1.000000 0.191154
vt 1.000000 0.808846
vt 1.000000 0.191154
vt 1.000000 0.808846
vt 1.000000 0.191154
vt 1.000000 0.808846
vt 1.000000 0.191154
vt 1.000000 0.808846
vt 1.000000 0.191154
vt 1.000000 0.808846
vt 1.000000 0.191154
vt 1.000000 0.808846
vt 1.000000 0.191154
vt 1.000000 0.808846
vt 1.000000 0.191154
vt 1.000000 0.808846
vt 1.000000 0.191154
vt 1.000000 0.808846
vt 1.000000 0.191154
vt 1.000000 0.808846
vt 1.000000 0.191154
vt 1.000000 0.808846
vt 1.000000 0.191154
vt 1.000000 0.808846
vn 0.0000 1.0000 0.0000
usemtl Material.002
s off
f 1/1/1 2/2/1 3/3/1
f 1/1/1 3/4/1 4/5/1
f 1/1/1 4/6/1 5/7/1
f 1/1/1 5/8/1 6/9/1
f 1/1/1 6/10/1 7/11/1
f 1/1/1 7/12/1 8/13/1
f 1/1/1 8/14/1 9/15/1
f 1/1/1 9/16/1 10/17/1
f 1/1/1 10/18/1 11/19/1
f 1/1/1 11/20/1 12/21/1
f 1/1/1 12/22/1 13/23/1
f 1/1/1 13/24/1 14/25/1
f 1/1/1 14/26/1 15/27/1
f 1/1/1 15/28/1 16/29/1
f 1/1/1 16/30/1 17/31/1
f 1/1/1 17/32/1 18/33/1
f 1/1/1 18/34/1 19/35/1
f 1/1/1 19/36/1 20/37/1
f 1/1/1 20/38/1 21/39/1
f 1/1/1 21/40/1 22/41/1
f 1/1/1 22/42/1 23/43/1
f 1/1/1 23/44/1 24/45/1
f 1/1/1 24/46/1 25/47/1
f 1/1/1 25/48/1 26/49/1
f 1/1/1 26/50/1 27/51/1
f 1/1/1 27/52/1 28/53/1
f 1/1/1 28/54/1 29/55/1
f 1/1/1 29/56/1 30/57/1
f 1/1/1 30/58/1 31/59/1
f 1/1/1 31/60/1 32/61/1
f 1/1/1 32/62/1 33/63/1
f 1/1/1 33/64/1 2/65/1
